<svg aria-hidden="true" style="width:0;height:0;position:absolute;overflow:hidden" xmlns="http://www.w3.org/2000/svg"><defs><symbol id="icon-instagram" viewBox="0 0 32 32"><path d="M15.874 9.12c-3.804-.001-6.872 3.067-6.873 6.87s3.067 6.872 6.87 6.873c3.804.001 6.872-3.066 6.873-6.87s-3.066-6.872-6.87-6.873zm-.003 11.339c-2.458-.001-4.467-2.005-4.466-4.469s2.004-4.467 4.468-4.466c2.464 0 4.467 2.004 4.467 4.468s-2.01 4.467-4.469 4.467zm8.758-11.618c0 .891-.718 1.603-1.603 1.602a1.603 1.603 0 1 1 1.603-1.602zm4.551 1.628c-.101-2.147-.591-4.049-2.164-5.616-1.567-1.567-3.468-2.058-5.615-2.166-2.213-.126-8.845-.128-11.058-.002-2.141.101-4.043.591-5.616 2.158s-2.058 3.468-2.166 5.615c-.126 2.213-.128 8.845-.002 11.058.101 2.147.591 4.049 2.164 5.616s3.468 2.058 5.615 2.166c2.213.126 8.845.128 11.058.003 2.147-.101 4.049-.591 5.616-2.164 1.567-1.567 2.058-3.468 2.166-5.615.126-2.213.128-8.839.002-11.052zm-2.862 13.426a4.523 4.523 0 0 1-2.548 2.547c-1.764.699-5.951.537-7.9.537s-6.142.154-7.9-.54a4.523 4.523 0 0 1-2.547-2.548c-.699-1.764-.537-5.951-.537-7.9s-.154-6.142.54-7.9a4.523 4.523 0 0 1 2.548-2.547c1.764-.699 5.951-.537 7.901-.537s6.142-.154 7.9.54a4.523 4.523 0 0 1 2.547 2.548c.699 1.764.537 5.951.537 7.9s.16 6.142-.54 7.9z"/></symbol><symbol id="icon-whatsapp" viewBox="0 0 32 32"><path d="M26.559 5.142A15.061 15.061 0 0 0 15.829.69C7.463.688.654 7.494.652 15.86a15.186 15.186 0 0 0 2.021 7.587l-2.155 7.86 8.045-2.11a15.136 15.136 0 0 0 7.252 1.847h.007c8.359.002 15.319-6.804 15.321-15.17.001-4.053-1.721-7.861-4.584-10.732zM15.823 28.488a12.59 12.59 0 0 1-6.424-1.758l-.458-.274-4.771 1.25 1.272-4.654-.301-.479a12.575 12.575 0 0 1-1.926-6.712C3.217 8.91 8.877 3.252 15.835 3.253c3.37.001 6.534 1.314 8.912 3.7s3.84 5.551 3.832 8.921c-.002 6.958-5.806 12.616-12.757 12.615zm6.919-9.445c-.376-.191-2.242-1.108-2.59-1.231-.349-.13-.601-.192-.854.191s-.978 1.23-1.203 1.49c-.219.253-.444.287-.82.095-2.228-1.115-3.69-1.99-5.159-4.512-.39-.67.39-.622 1.114-2.071.123-.253.062-.472-.034-.663s-.854-2.057-1.168-2.816c-.307-.738-.622-.636-.854-.649-.219-.014-.472-.014-.724-.014s-.663.096-1.012.471c-.349.383-1.326 1.298-1.327 3.164s1.359 3.671 1.544 3.924c.191.253 2.672 4.081 6.478 5.729 2.406 1.039 3.349 1.128 4.552.951.731-.109 2.242-.915 2.557-1.804s.315-1.647.219-1.804c-.089-.171-.342-.267-.718-.451z"/></symbol><symbol id="icon-twitter" viewBox="0 0 32 32"><path d="M26.471 8.752c.016.225.016.451.016.676-.002 6.874-5.235 14.793-14.798 14.791a14.698 14.698 0 0 1-7.984-2.336c.419.048.821.065 1.256.065 2.431.001 4.669-.82 6.456-2.22a5.21 5.21 0 0 1-4.861-3.607c.322.048.644.081.982.081.467 0 .934-.064 1.368-.177a5.2 5.2 0 0 1-4.168-5.104v-.064a5.239 5.239 0 0 0 2.35.661 5.195 5.195 0 0 1-2.317-4.331c0-.966.258-1.851.709-2.624a14.782 14.782 0 0 0 10.72 5.444 5.902 5.902 0 0 1-.129-1.191 5.198 5.198 0 0 1 5.201-5.199c1.497 0 2.849.628 3.799 1.643a10.255 10.255 0 0 0 3.301-1.255 5.189 5.189 0 0 1-2.287 2.865 10.418 10.418 0 0 0 2.995-.804 11.174 11.174 0 0 1-2.609 2.688z"/></symbol><symbol id="icon-phone" viewBox="0 0 32 32"><path d="M13.919 8.652 9.603 3.67c-.498-.574-1.41-.572-1.988.008L4.066 7.234c-1.056 1.058-1.359 2.628-.748 3.888A37.264 37.264 0 0 0 20.62 28.448c1.258.611 2.827.309 3.884-.749l3.583-3.589c.581-.581.582-1.498.003-1.995l-5.001-4.293c-.523-.449-1.336-.39-1.86.135l-1.74 1.743a.588.588 0 0 1-.706.112 18.574 18.574 0 0 1-6.839-6.848.594.594 0 0 1 .112-.706l1.735-1.736c.526-.528.583-1.343.129-1.868z"/></symbol><symbol id="icon-email" viewBox="0 0 32 32"><path d="M26.731 5.729H3.819A1.91 1.91 0 0 0 1.91 7.638v15.275a1.91 1.91 0 0 0 1.909 1.909h22.912a1.91 1.91 0 0 0 1.909-1.909V7.638a1.91 1.91 0 0 0-1.909-1.909zm-2.1 1.909-9.356 6.473-9.356-6.473H24.63zM3.819 22.913V8.507l10.912 7.551a.954.954 0 0 0 1.088 0l10.912-7.551v14.406H3.819z"/></symbol><symbol id="icon-arrow-down" viewBox="0 0 32 32"><path d="M16 19.808c-.171 0-.336-.032-.497-.096s-.293-.149-.399-.256l-5.888-5.888c-.235-.235-.352-.533-.352-.896s.117-.661.352-.896.533-.352.896-.352.661.117.896.352L16 16.768l4.992-4.992c.235-.235.533-.352.896-.352s.661.117.896.352.352.533.352.896-.117.661-.352.896l-5.888 5.888c-.128.128-.267.219-.416.273s-.309.08-.48.079z"/></symbol></defs></svg>