<svg aria-hidden="true" style="position: absolute; width: 0; height: 0; overflow: hidden;" version="1.1" xmlns="http://www.w3.org/2000/svg" xmlns:xlink="http://www.w3.org/1999/xlink">
<defs>
<symbol id="icon-instagram" viewBox="0 0 32 32">
<path d="M15.874 9.12c-3.804-0.001-6.872 3.067-6.873 6.87s3.067 6.872 6.87 6.873c3.804 0.001 6.872-3.066 6.873-6.87s-3.066-6.872-6.87-6.873zM15.871 20.459c-2.458-0.001-4.467-2.005-4.466-4.469s2.004-4.467 4.468-4.466c2.464 0 4.467 2.004 4.467 4.468s-2.010 4.467-4.469 4.467zM24.629 8.841c-0 0.891-0.718 1.603-1.603 1.602-0.891-0-1.603-0.718-1.602-1.603s0.718-1.603 1.603-1.602c0.885 0 1.603 0.718 1.602 1.603zM29.18 10.469c-0.101-2.147-0.591-4.049-2.164-5.616-1.567-1.567-3.468-2.058-5.615-2.166-2.213-0.126-8.845-0.128-11.058-0.002-2.141 0.101-4.043 0.591-5.616 2.158s-2.058 3.468-2.166 5.615c-0.126 2.213-0.128 8.845-0.002 11.058 0.101 2.147 0.591 4.049 2.164 5.616s3.468 2.058 5.615 2.166c2.213 0.126 8.845 0.128 11.058 0.003 2.147-0.101 4.049-0.591 5.616-2.164 1.567-1.567 2.058-3.468 2.166-5.615 0.126-2.213 0.128-8.839 0.002-11.052zM26.318 23.895c-0.467 1.172-1.37 2.075-2.548 2.547-1.764 0.699-5.951 0.537-7.9 0.537s-6.142 0.154-7.9-0.54c-1.172-0.467-2.075-1.37-2.547-2.548-0.699-1.764-0.537-5.951-0.537-7.9s-0.154-6.142 0.54-7.9c0.467-1.172 1.37-2.075 2.548-2.547 1.764-0.699 5.951-0.537 7.901-0.537s6.142-0.154 7.9 0.54c1.172 0.467 2.075 1.37 2.547 2.548 0.699 1.764 0.537 5.951 0.537 7.9s0.16 6.142-0.54 7.9z"></path>
</symbol>
<symbol id="icon-whatsapp" viewBox="0 0 32 32">
<path d="M26.559 5.142c-2.863-2.871-6.677-4.451-10.73-4.452-8.366-0.002-15.175 6.804-15.177 15.17-0.001 2.673 0.696 5.284 2.021 7.587l-2.155 7.86 8.045-2.11c2.214 1.21 4.709 1.846 7.252 1.847h0.007c8.359 0.002 15.319-6.804 15.321-15.17 0.001-4.053-1.721-7.861-4.584-10.732zM15.823 28.488c-2.269-0.001-4.49-0.609-6.424-1.758l-0.458-0.274-4.771 1.25 1.272-4.654-0.301-0.479c-1.264-2.010-1.926-4.327-1.926-6.712 0.002-6.951 5.662-12.609 12.62-12.608 3.37 0.001 6.534 1.314 8.912 3.7s3.84 5.551 3.832 8.921c-0.002 6.958-5.806 12.616-12.757 12.615zM22.742 19.043c-0.376-0.191-2.242-1.108-2.59-1.231-0.349-0.13-0.601-0.192-0.854 0.191s-0.978 1.23-1.203 1.49c-0.219 0.253-0.444 0.287-0.82 0.095-2.228-1.115-3.69-1.99-5.159-4.512-0.39-0.67 0.39-0.622 1.114-2.071 0.123-0.253 0.062-0.472-0.034-0.663s-0.854-2.057-1.168-2.816c-0.307-0.738-0.622-0.636-0.854-0.649-0.219-0.014-0.472-0.014-0.724-0.014s-0.663 0.096-1.012 0.471c-0.349 0.383-1.326 1.298-1.327 3.164s1.359 3.671 1.544 3.924c0.191 0.253 2.672 4.081 6.478 5.729 2.406 1.039 3.349 1.128 4.552 0.951 0.731-0.109 2.242-0.915 2.557-1.804s0.315-1.647 0.219-1.804c-0.089-0.171-0.342-0.267-0.718-0.451z"></path>
</symbol>
<symbol id="icon-twitter" viewBox="0 0 32 32">
<path d="M26.471 8.752c0.016 0.225 0.016 0.451 0.016 0.676-0.002 6.874-5.235 14.793-14.798 14.791-2.946-0.001-5.683-0.855-7.984-2.336 0.419 0.048 0.821 0.065 1.256 0.065 2.431 0.001 4.669-0.82 6.456-2.22-2.286-0.049-4.201-1.546-4.861-3.607 0.322 0.048 0.644 0.081 0.982 0.081 0.467 0 0.934-0.064 1.368-0.177-2.382-0.483-4.169-2.577-4.168-5.104l0-0.064c0.692 0.387 1.497 0.628 2.35 0.661-1.4-0.934-2.318-2.528-2.317-4.331 0-0.966 0.258-1.851 0.709-2.624 2.559 3.156 6.406 5.217 10.72 5.444-0.080-0.386-0.129-0.789-0.129-1.191 0.001-2.866 2.319-5.199 5.201-5.199 1.497 0 2.849 0.628 3.799 1.643 1.175-0.225 2.302-0.66 3.301-1.255-0.387 1.207-1.208 2.221-2.287 2.865 1.047-0.112 2.061-0.402 2.995-0.804-0.708 1.030-1.594 1.947-2.609 2.688z"></path>
</symbol>
<symbol id="icon-phone" viewBox="0 0 32 32">
<path d="M13.919 8.652l-4.316-4.982c-0.498-0.574-1.41-0.572-1.988 0.008l-3.549 3.556c-1.056 1.058-1.359 2.628-0.748 3.888 3.651 7.559 9.748 13.665 17.302 17.326 1.258 0.611 2.827 0.309 3.884-0.749l3.583-3.589c0.581-0.581 0.582-1.498 0.003-1.995l-5.001-4.293c-0.523-0.449-1.336-0.39-1.86 0.135l-1.74 1.743c-0.089 0.093-0.206 0.155-0.334 0.175s-0.258-0.002-0.372-0.063c-2.845-1.638-5.204-4.001-6.839-6.848-0.061-0.114-0.083-0.245-0.063-0.372s0.082-0.245 0.175-0.334l1.735-1.736c0.526-0.528 0.583-1.343 0.129-1.868z"></path>
</symbol>
<symbol id="icon-email" viewBox="0 0 32 32">
<path d="M26.731 5.729h-22.912c-0.506 0-0.992 0.201-1.35 0.559s-0.559 0.844-0.559 1.35v15.275c0 0.506 0.201 0.992 0.559 1.35s0.844 0.559 1.35 0.559h22.912c0.506 0 0.992-0.201 1.35-0.559s0.559-0.844 0.559-1.35v-15.275c0-0.506-0.201-0.992-0.559-1.35s-0.844-0.559-1.35-0.559zM24.631 7.638l-9.356 6.473-9.356-6.473h18.711zM3.819 22.913v-14.406l10.912 7.551c0.16 0.111 0.35 0.17 0.544 0.17s0.384-0.059 0.544-0.17l10.912-7.551v14.406h-22.912z"></path>
</symbol>
<symbol id="icon-arrow-down" viewBox="0 0 32 32">
<path d="M16 19.808c-0.171 0-0.336-0.032-0.497-0.096s-0.293-0.149-0.399-0.256l-5.888-5.888c-0.235-0.235-0.352-0.533-0.352-0.896s0.117-0.661 0.352-0.896 0.533-0.352 0.896-0.352c0.363 0 0.661 0.117 0.896 0.352l4.992 4.992 4.992-4.992c0.235-0.235 0.533-0.352 0.896-0.352s0.661 0.117 0.896 0.352c0.235 0.235 0.352 0.533 0.352 0.896s-0.117 0.661-0.352 0.896l-5.888 5.888c-0.128 0.128-0.267 0.219-0.416 0.273s-0.309 0.080-0.48 0.079z"></path>
</symbol>
</defs>
</svg>
